<?xml version="1.0" encoding="utf-8" ?>
<svg xmlns="http://www.w3.org/2000/svg" xmlns:xlink="http://www.w3.org/1999/xlink" width="1024" height="1024">
	<path fill="white" d="M0 0L1024 0L1024 1024L0 1024L0 0Z"/>
	<path fill="#1B1B1B" d="M374.516 566.696C377.541 568.788 379.911 574.333 381.607 577.56L396.904 577.489C393.769 581.135 390.56 584.626 387.21 588.074C389.131 592.596 390.628 597.313 392.228 601.957C387.826 600.496 383.474 598.867 379.11 597.298C375.055 599.222 371.101 602.74 367.466 605.395C367.426 600.532 367.649 595.665 367.809 590.805Q362.102 587.08 356.469 583.245C360.553 581.698 365.132 579.983 369.479 579.523C371.071 575.203 372.698 570.929 374.516 566.696Z"/>
	<path fill="#1B1B1B" d="M714.675 388.787C717.71 391.056 723.307 402.257 725.447 405.967C732.059 404.398 738.759 403.27 745.365 401.622C740.881 406.508 736.6 411.604 732.255 416.615C735.574 423 739.463 429.203 743.049 435.449C737.855 432.03 732.165 429.333 726.649 426.475L724.208 425.276C721.019 426.203 711.301 439.138 708.54 442.418C710.196 435.101 711.102 427.646 711.868 420.19C705.839 417.411 699.824 414.723 693.63 412.328Q702.882 410.371 712.177 408.629C713.277 402.059 714.271 395.44 714.675 388.787Z"/>
	<path fill="#1B1B1B" d="M303.045 578.324C306.445 581.739 309.044 586.965 311.469 591.161C316.956 591.092 322.427 591.346 327.908 591.57C324.614 595.456 321.712 599.662 318.739 603.795C320.223 608.917 321.971 613.981 323.608 619.057C320.547 617.941 310.244 613.622 307.722 614.209C303.725 617.536 299.559 620.854 295.127 623.581C295.005 618.181 295.114 612.814 295.271 607.418C291.016 604.045 286.417 601.057 281.952 597.97C287.126 596.055 292.409 594.356 297.628 592.565C299.73 587.969 301.02 582.983 303.045 578.324Z"/>
	<path fill="#1B1B1B" d="M210.979 582.187C217.208 587.29 223.961 598.203 228.722 605.035C237.862 603.672 247.625 604.165 256.84 604.366L240.504 627.768C245.17 635.664 247.861 645.387 251.068 653.987C241.697 651.936 232.429 648.387 223.116 645.927C219.842 646.802 203.538 660.892 199.952 664.018Q199.768 649.682 199.842 635.346C192.702 629.483 183.89 623.728 175.875 619.125Q189.707 613.749 203.719 608.863C206.037 599.929 208.341 591.035 210.979 582.187Z"/>
	<path fill="#1B1B1B" d="M111.975 582.854C118.765 589.58 124.321 599.131 129.808 607.019Q143.912 606.27 158.035 606.366C153.43 614.468 147.207 622.025 141.742 629.577Q146.769 643.191 151.429 656.936C141.941 654.761 132.715 650.806 123.404 647.941C117.145 654.213 108.148 660.105 100.837 665.252C100.476 655.478 100.341 645.681 100.1 635.902C91.7195 630.731 83.6215 625.081 75.3998 619.661C82.8418 617.024 95.6241 612.021 103.287 611.341C106.69 602.026 108.275 592.105 111.975 582.854Z"/>
	<path fill="#1B1B1B" d="M855.505 347.309C860.036 351.461 868.875 365.525 872.943 371.301Q887.485 371.379 902.023 371.011C896.636 378.956 890.844 386.594 885.135 394.308C888.815 403.293 891.93 412.501 895.073 421.684C885.534 419.11 876.36 415.873 867.104 412.426C863.6 413.654 848.049 427.2 843.835 430.58C843.068 421.122 843.282 411.416 843.11 401.924Q831.424 393.495 819.642 385.201C828.531 381.689 837.686 377.763 847.032 375.664C850.296 366.386 852.404 356.663 855.505 347.309Z"/>
	<path fill="#1B1B1B" d="M17.8584 800.92C23.3829 799.737 28.9992 798.949 34.5355 797.798C47.8652 795.027 61.2553 791.738 74.3945 788.172C156.335 765.929 235.033 732.636 313.393 700.364L379.951 672.639C392.87 667.234 406.358 662.299 418.789 655.877C417.779 664.192 416.693 673.494 414.295 681.517C407.613 682.757 400.016 686.756 393.662 689.297L341.543 710.505Q303.997 725.773 266.186 740.374C201.988 765.886 137.103 790.395 68.1376 799.03C51.7707 801.079 34.32 802.614 17.8584 800.92Z"/>
	<path fill="#1B1B1B" d="M185.359 398.717C192.554 398.118 200.423 399.805 206.664 403.438C213.329 407.319 218.382 413.751 220.168 421.308C222.189 429.861 219.931 439.765 215.165 447.059C210.099 454.813 201.57 460.56 192.502 462.426C185.929 463.778 179.759 462.833 174.168 459.026C168.26 455.003 166.231 449.387 165.091 442.654C167.43 444.213 169.824 445.733 172.547 446.517C177.819 448.035 183.059 447.104 187.824 444.492C192.495 441.932 198.183 436.622 199.555 431.266C200.413 427.914 200.188 424.606 198.304 421.646C196.613 418.989 194.092 417.274 191.016 416.616C183.954 415.104 175.449 418.464 169.638 422.389C160.821 428.344 152.112 438.666 150.281 449.422C146.769 470.055 173.414 477.815 183.413 491.601C186.717 496.157 188.502 501.349 187.5 506.989C185.516 518.153 175.013 527.932 166.258 534.223L165.673 534.574C153.478 541.823 139.558 544.751 125.628 541.178C115.889 538.68 106.323 532.804 101.303 523.857C98.5427 518.939 97.0509 512.931 98.7925 507.404C100.159 503.067 103.394 499.774 107.379 497.712C113.838 494.368 120.732 494.37 127.504 496.578Q125.685 498.164 123.976 499.869C121.619 502.24 119.787 505.386 119.922 508.835C120.048 512.073 121.864 514.814 124.19 516.949C131.163 523.35 142.085 525.45 151.27 524.809C156.649 524.434 163.389 522.902 166.932 518.556C168.45 516.693 169.056 514.503 168.78 512.121C168.505 509.739 167.322 507.514 165.745 505.737C160.855 500.226 145.942 492.188 139.049 486.582C130.759 479.84 124.092 471.836 123.086 460.835C121.898 447.846 127.219 435.067 135.447 425.232C148.307 409.86 165.343 400.526 185.359 398.717Z"/>
	<path fill="#1B1B1B" d="M703.159 302.912C753.109 284.854 802.283 265.224 852.984 249.262C883.712 239.589 915.534 230.644 947.575 226.777C969.014 224.189 989.98 224.186 1011.48 225.746C1001.83 226.771 992.261 227.733 982.691 229.395C906.284 242.666 827.242 276.879 755.662 306.5L630.985 357.447C606.538 367.569 582.194 378.81 557.179 387.455C561.375 377.618 564.871 367.691 568.747 357.754L609.256 341.297C615.547 338.728 623.431 336.366 629.051 332.581C631.112 331.902 633.097 330.895 635.078 330.009L635.128 321.311C635.389 324.233 635.417 327.056 635.342 329.987Q645.244 326.293 654.992 322.21L685.445 310.089C691.343 307.746 697.42 305.621 703.159 302.912Z"/>
	<path fill="#1B1B1B" d="M428.191 598.143C426.932 606.434 425.72 621.366 423.295 628.849C417.476 630.204 402.151 637.797 396.024 640.446L339.219 664.433Q251.309 701.771 162.457 736.809C119.86 753.293 75.3572 771.458 30.2963 779.49C39.3475 767.601 46.6222 754.385 55.9073 742.661C68.431 739.087 81.0459 736.035 93.4655 732.057C129.951 720.371 165.737 705.835 201.297 691.639Q257.798 669.378 313.808 645.908L388.802 614.534L413.617 603.998C418.36 601.98 423.219 599.521 428.191 598.143Z"/>
	<path fill="#1B1B1B" d="M986.129 249.704C988.274 249.438 990.545 249.511 992.71 249.442C982.777 258.724 975.984 270.283 969.468 282.054C919.155 293.414 870.474 313.629 822.686 332.827Q748.196 362.651 674.57 394.551C655.861 402.757 637.001 412.544 618.201 420.107C614.423 414.596 609.671 409.917 602.84 408.669C596.623 407.533 590.094 409.645 585.059 413.296C578.452 418.088 574.491 425.459 573.103 433.382L572.965 438.682C569.139 436.783 565.483 435.375 561.244 434.725C563.347 432.579 565.342 430.231 567.022 427.736C571.697 420.798 572.932 414.408 571.388 406.203C601.039 394.703 630.078 381.206 659.445 368.956L810.964 307.299Q846.736 292.672 882.868 278.959C915.875 266.419 950.7 252.639 986.129 249.704Z"/>
	<path fill="#1B1B1B" d="M492.491 397.108C497.311 397.232 501.828 397.608 506.01 400.313C510.258 403.06 512.288 407.071 513.412 411.866C509.851 421.719 504.216 431.066 499.303 440.317Q486.28 465.054 472.581 489.424C467.383 498.774 460.482 509.435 457.563 519.727C457.048 521.542 457.186 523.813 457.74 525.606C458.171 527.004 458.95 528.48 460.405 529.027C461.915 529.595 463.701 528.946 465.045 528.229C469.403 525.904 473.049 520.83 475.67 516.743C484.761 502.566 491.611 486.364 499.361 471.381L520.798 430.347C523.691 424.764 526.875 419.214 529.536 413.526C531.344 409.663 531.874 403.808 533.44 400.816C533.935 399.87 534.686 399.574 535.654 399.269C538.894 398.25 543.93 399.59 546.799 401.175C550.648 403.302 554.846 407.016 555.913 411.455C556.418 413.557 556.186 415.749 555.486 417.778C553.673 423.027 550.045 428.162 547.241 432.979Q541.052 443.632 534.997 454.362C536.876 453.058 538.765 451.735 540.758 450.609C546.984 447.091 554.832 444.441 561.931 446.656C566.117 447.961 569.316 450.878 571.242 454.789C577.776 468.053 571.349 482.947 566.949 495.664C580.022 487.311 587.922 476.256 593.947 462.031C589.579 458.161 586.507 453.709 585.039 448.008C583.277 441.167 583.822 433.689 587.547 427.576C589.473 424.416 592.499 421.139 596.285 420.384C598.81 419.881 601.268 420.718 603.28 422.25C615.8 431.784 602.4 437.901 604.227 447.724C604.94 451.556 607.849 454.346 610.897 456.502L611.447 456.884C613.284 453.832 615.363 448.903 618.986 447.768C621.765 446.897 625.129 448.514 627.411 449.963C633.333 453.725 636.737 458.03 638.264 464.862C638.22 464.989 638.179 465.116 638.133 465.243L637.898 465.871C636.004 471.084 632.432 475.947 629.647 480.747C624.546 489.54 619.319 498.514 615.058 507.737C612.902 512.404 607.184 523.362 609.507 528.229C610.042 529.35 610.769 530.265 612.023 530.593C620.357 532.765 633.714 510.349 637.065 504.299C639.893 499.193 642.084 493.76 644.883 488.639Q649.073 481.134 653.883 474.011C660.567 464.166 669.475 453.6 679.833 447.463C686.591 443.459 694.409 441.855 702.106 443.982C708.115 445.642 713.034 449.215 715.991 454.748C722.738 467.376 719.948 482.319 716.021 495.354C723.151 491.82 732.975 485.12 738.198 479.064C743.053 473.436 747.569 462.682 751.252 455.934C759.698 440.458 771.035 422.982 777.094 406.575C775.776 404.345 774.033 402.428 773.09 399.988C773.644 398.984 773.851 398.908 774.884 398.476C779.816 396.409 790.589 396.797 795.408 398.967C797.672 399.987 798.753 401.331 799.528 403.661C803.972 417.01 785.786 444.02 779.875 456.313C784.056 451.952 788.358 448.195 794.118 446.08C799.094 444.252 804.296 443.89 809.153 446.29Q809.876 446.651 810.56 447.082Q811.244 447.513 811.882 448.009Q812.52 448.505 813.106 449.062Q813.692 449.619 814.22 450.23Q814.749 450.842 815.214 451.503Q815.679 452.164 816.077 452.868Q816.475 453.571 816.802 454.311Q817.128 455.05 817.38 455.818C819.143 461.045 818.359 466.481 815.855 471.324C808.552 485.454 791.797 492.463 777.547 497.19C777.498 505.176 777.665 514.115 780.318 521.739C781.192 524.251 782.918 527.812 785.633 528.787C794.503 531.975 813.82 503.352 817.561 496.311C821.142 489.572 822.537 482.187 826.868 475.684C833.43 465.829 841.686 456.883 851.863 450.703C861.452 444.881 873.908 441.321 885.046 444.177C890.048 445.459 894.955 448.071 897.52 452.738C900.175 457.57 899.758 463.52 898.317 468.664C894.114 483.667 880.602 499.058 867.061 506.469C856.289 512.366 850.092 510.758 839.036 507.491C838.751 511.877 838.332 516.773 840.046 520.919C841.183 523.669 843.286 525.717 846.099 526.717C849.749 528.013 853.993 527.833 857.734 526.999C880.42 521.94 893.706 492.481 900.185 490.352C901.475 489.928 902.709 490.043 903.922 490.621C905.489 491.368 906.756 492.785 907.131 494.51C908.021 498.596 902.588 504.624 900.204 507.769C888.739 522.893 872.659 539.647 852.91 542.218C844.528 543.309 834.864 541.759 828.157 536.317C821.311 530.762 818.269 522.288 817.307 513.793C813.943 519.56 810.029 525.332 805.716 530.422C800.03 537.132 793.939 542.395 784.73 542.971Q784.138 543.005 783.546 543.01Q782.954 543.015 782.362 542.99Q781.77 542.965 781.18 542.911Q780.59 542.856 780.004 542.773Q779.417 542.689 778.835 542.576Q778.254 542.463 777.679 542.321Q777.103 542.18 776.536 542.009Q775.969 541.839 775.41 541.641Q774.852 541.442 774.305 541.216Q773.757 540.99 773.221 540.737Q772.686 540.484 772.163 540.205Q771.641 539.925 771.133 539.62Q770.625 539.315 770.134 538.985Q769.642 538.654 769.167 538.3Q768.692 537.946 768.236 537.568Q767.779 537.191 767.342 536.791C758.292 528.508 756.402 515.264 755.667 503.696C752.66 510.122 749.299 516.413 746.073 522.735C744.15 526.433 739.555 537.294 736.559 539.214C734.299 540.662 729.641 540.236 727.245 539.372C724.284 538.305 721.812 536.562 720.506 533.617C716.624 524.867 723.443 511.239 726.618 503.076C721.024 507.762 714.272 508.707 708.943 512.765C696.151 522.505 688.109 539.022 671.047 542.569C664.041 544.025 657.516 542.744 651.566 538.739C644.988 534.312 641.458 528.411 639.911 520.689C634.695 528.129 627.223 538.035 618.563 541.679C613.033 544.007 606.312 543.527 600.893 541.094C596.341 539.05 592.776 535.497 591.022 530.792C584.948 514.503 599.987 485.325 607.019 470.418C605.844 469.585 604.511 468.915 603.254 468.205Q601.393 471.731 599.444 475.21C592.513 487.347 582.819 499.919 570.321 506.722C566.258 508.933 560.877 510.603 557.408 513.607C554.87 515.804 553.039 518.994 550.811 521.513C542.697 530.681 531.614 539.547 519.607 542.721C512.083 544.71 503.329 544.341 496.574 540.188C490.937 536.721 488.02 531.287 486.564 525.016C481.146 531.847 474.352 538.941 465.664 541.279C460.303 542.722 455.397 542.117 450.58 539.375C445.582 536.529 441.177 532.564 439.638 526.852C434.338 532.933 428.745 538.2 420.983 540.899C414.256 543.238 405.992 543.239 399.577 539.934C393.196 536.646 389.628 530.861 387.628 524.198Q387.238 524.819 386.838 525.433C381.961 532.9 374.506 541.026 365.308 542.677C360.526 543.535 355.219 542.541 351.214 539.743C345.305 535.616 344.083 529.232 342.828 522.642C335.89 528.789 325.011 540.981 315.242 541.103C309.021 541.18 302.629 537.526 298.238 533.276C293.942 529.119 291.85 524.431 291.729 518.486C286.525 526.467 279.445 536.105 270.87 540.719C266.251 543.205 262.025 543.52 257.092 541.969C250.051 539.754 244.049 537.259 240.548 530.189C232.2 513.33 256.74 481.894 262.472 464.928C253 473.409 230.328 496.551 223.609 507.246C218.914 514.72 211.116 527.207 213.264 536.133C213.338 536.441 213.42 536.747 213.492 537.055C213.889 538.77 213.799 539.611 212.893 541.105C212.216 541.533 211.6 541.896 210.795 542.033C205.849 542.877 197.816 540.034 193.857 537.209C190.835 535.053 188.242 531.598 188.365 527.723C188.706 517.016 197.558 504.326 202.565 495.111Q218.618 466.212 234.143 437.026C239.061 427.604 245.775 416.581 248.22 406.185C248.672 404.262 248.242 402.131 247.964 400.202C248.987 399.671 250.027 399.122 251.105 398.712C255.731 396.951 262.109 398.15 266.452 400.334C268.924 401.576 270.656 403.654 271.471 406.297C275.248 418.54 252.887 454.74 246.551 466.838C252.706 461.495 262.799 450.348 269.594 447.137C273.503 445.29 277.732 445.217 281.745 446.812C285.376 448.255 288.405 450.904 289.881 454.572C290.917 457.15 291.159 460.152 290.589 462.869C288.959 470.644 283.539 478.446 279.68 485.307C275.242 493.195 270.621 501.293 267.08 509.628C265.214 514.02 261.257 523.984 263.712 528.5C264.194 529.386 265.177 530.184 266.195 530.27C275.269 531.04 299.425 483.554 305.603 474.945C311.627 466.55 319.16 458.943 327.256 452.538C354.217 431.211 360.484 455.646 367.265 456.416C369.92 454.787 370.501 450.672 371.373 447.861C372.129 445.421 372.68 444.549 375.01 443.407C378.568 441.662 382.851 442.13 386.457 443.484C391.73 445.463 395.063 448.786 397.328 453.851C394.922 460.244 390.698 466.379 387.216 472.256C380.11 484.253 372.404 496.514 366.782 509.284C364.574 514.298 360.819 523.139 363.133 528.504C363.655 529.714 364.542 530.673 365.828 531.071C368.422 531.875 371.592 527.706 372.926 525.962C378.794 518.286 384.46 508.55 388.535 499.798C391.068 494.357 392.916 488.662 395.595 483.265C401.426 471.522 412.106 459.949 423.484 453.4C431.065 449.037 441.886 445.009 450.619 447.609C456.77 449.44 459.93 453.573 462.74 458.994C467.595 450.754 471.708 441.932 475.966 433.371C480.256 424.746 484.77 416.186 488.928 407.501C490.457 404.307 490.497 399.874 492.491 397.108Z"/>
	<path fill="white" d="M504.927 517.146C509.798 520.542 513.953 521.272 519.709 521.716L515.323 524.644C513.068 525.829 509.916 527.735 507.235 527.119C505.981 526.831 505.009 526.268 504.387 525.093C503.21 522.868 504.196 519.36 504.927 517.146Z"/>
	<path fill="white" d="M793.429 458.446C794.734 458.666 795.806 459.238 796.616 460.303C797.09 460.926 797.168 461.39 796.974 462.173C796.442 464.322 794.159 466.489 792.639 468.031C785.259 475.517 777.162 480.523 767.633 484.874L765.407 485.45L765.144 484.915Q765.394 484.312 765.667 483.72C770.722 472.809 782.257 462.667 793.429 458.446Z"/>
	<path fill="white" d="M879.566 461.388C879.745 461.461 879.946 461.496 880.104 461.608C880.995 462.233 881.014 462.916 880.979 463.919C880.72 471.284 872.149 481.404 867.051 486.254C861.124 491.893 854.601 496.312 846.112 496.064L844.773 495.393C844.346 494.299 844.462 494.177 844.887 493.118C849.07 482.699 869.12 465.85 879.566 461.388Z"/>
	<path fill="white" d="M546.87 462.006C548.047 461.932 548.776 461.98 549.891 462.373C550.976 463.348 551.503 464.147 551.745 465.588C553.576 476.507 541.56 497.383 535.223 505.807C528.187 507.563 521.069 507.623 513.875 507.49C512.386 507.24 510.861 507.174 509.665 506.173C509.648 505.549 509.61 505.441 509.792 504.744C510.422 502.338 512.609 499.188 513.858 496.965C521.334 483.661 532.467 468.307 546.87 462.006Z"/>
	<path fill="white" d="M350.043 463.512C351.054 463.44 352.081 463.365 353.094 463.432C354.669 463.537 356.269 464.166 357.23 465.485C358.436 467.141 358.554 468.859 358.206 470.814C355.379 486.699 332.439 513.735 319.01 522.922C318.418 523.116 317.882 523.314 317.246 523.259C315.892 523.142 313.67 522.552 312.915 521.346C311.164 518.548 312.403 514.231 313.332 511.325C317.777 497.411 337.293 469.942 350.043 463.512Z"/>
	<path fill="white" d="M446.9 466.596C449.737 466.446 452.39 466.523 454.894 467.994C455.633 469.201 455.666 469.734 455.306 471.125C454.398 474.627 451.615 478.521 449.802 481.673C441.622 495.892 431.259 513.959 417.09 522.709C416.5 523.014 416.582 522.985 415.841 523.285C414.195 523.952 412.19 524.634 410.533 523.593C409.644 523.036 409.108 522.026 408.828 521.046C406.734 513.726 412.803 501.637 416.223 495.393C423.051 482.923 432.781 470.751 446.9 466.596Z"/>
	<path fill="white" d="M704.535 461.073C705.722 461.046 706.93 461.003 708.068 461.396C709.686 461.956 710.775 463.206 711.485 464.72C715.515 473.315 710.037 488.436 707.095 496.843C705.741 491.319 703.869 484.385 698.789 481.127C696.576 479.708 693.976 479.303 691.441 480.025C688.431 480.884 685.916 483.198 684.528 485.97C683.003 489.016 682.905 492.499 684.137 495.666C686.23 501.049 690.876 503.897 695.839 506.233L687.447 516.303C683.222 521.034 678.393 526.306 672.625 529.176C670.777 530.096 668.338 530.882 666.344 529.914C664.919 529.222 664.129 527.767 663.696 526.313C660.757 516.45 669.184 497.079 674.056 488.653C680.919 476.781 690.805 464.746 704.535 461.073Z"/>
	<path fill="#1B1B1B" d="M443.687 51.03C447.77 47.8727 451.921 44.69 456.354 42.0371C473.364 31.858 496.697 30.8152 515.54 35.7474C530.675 39.709 544.422 48.0701 552.44 61.837C560.791 76.1744 559.528 91.5023 555.477 106.959Q563.326 104.932 571.255 103.248C572.756 109.88 572.929 116.965 573.676 123.723Q575.392 138.514 577.693 153.225C615.699 188.388 631.033 210.506 648.899 259.24C651.747 267.01 654.231 274.897 656.754 282.777C657.962 286.55 658.977 290.629 660.555 294.253C661.062 295.417 661.35 296.095 662.584 296.533C666.085 294.218 666.052 289.131 670.554 287.096C675.911 284.675 686.226 287.57 691.492 289.437C698.183 291.81 700.367 296.933 703.159 302.912C697.42 305.621 691.343 307.746 685.445 310.089L654.992 322.21Q645.244 326.293 635.342 329.987C635.417 327.056 635.389 324.233 635.128 321.311L635.078 330.009C633.097 330.895 631.112 331.902 629.051 332.581C623.431 336.366 615.547 338.728 609.256 341.297L568.747 357.754C564.871 367.691 561.375 377.618 557.179 387.455C556.796 389.378 556.169 391.297 555.651 393.191C552.574 391.305 549.44 389.545 546.281 387.801C547.245 384.16 548.444 380.574 549.577 376.982C541.874 373.238 533.758 370.649 526.107 366.607C514.805 360.636 504.762 352.714 494.163 345.621C500.663 366.547 516.408 375.111 533.407 386.434C530.305 387.505 527.593 388.879 524.763 390.517C518.212 387.867 512.31 383.909 506.666 379.711L505.73 386.189C503.579 385.743 501.396 385.565 499.213 385.34C499.323 384.03 499.603 382.806 499.784 381.513C500.62 375.548 493.658 367.889 490.279 363.293C483.905 370.538 473.607 378.752 474.039 389.318C474.153 392.111 476.452 395.776 475.994 398.208C475.861 398.914 475.455 398.977 474.914 399.34C474.718 399.285 474.516 399.252 474.328 399.175C470.822 397.733 467.319 391.294 465.522 388.024Q457.806 393.912 450.937 400.77C450.866 412.529 451.824 424.357 452.599 436.087L445.006 435.898Q444.877 429.47 444.565 423.048C443.847 427.281 443.238 431.468 442.845 435.743C438.753 436.493 434.727 437.507 430.689 438.499C433.092 426.996 434.642 415.331 436.992 403.816C443.293 372.948 450.422 342.141 457.276 311.385L463.363 284.355C465.071 276.689 466.48 268.638 469.431 261.334C462.103 251.734 424.759 214.646 422.637 209.002C423.141 205.798 429.27 203.818 431.987 202.278C440.702 197.338 449.741 185.725 456.388 178.042L455.959 178.041C448.268 177.994 431.722 178.966 426.303 173.096C422.776 169.276 423.447 163.967 423.568 159.197C415.753 152.444 421.751 151.904 418.84 147.493C417.555 146.963 416.856 146.69 415.943 145.588C414.809 141.486 416.617 137.597 417.866 133.707C415.802 132.696 413.609 131.655 411.695 130.373C410.231 129.393 408.914 127.563 408.717 125.781C408.186 120.993 415.355 114.22 418.212 110.841C417.648 97.3378 418.018 86.7969 425.536 75.1966C418.707 70.7612 411.391 64.7462 407.253 57.6152C406.115 55.6543 405.14 53.1781 405.854 50.9002C406.45 48.9992 408.005 47.6883 409.745 46.8409C419.396 42.1404 434.294 47.8176 443.687 51.03Z"/>
	<path fill="white" d="M452.837 223.883C456.913 228.254 460.665 232.933 464.734 237.326C468.059 240.915 472.335 244.505 475.115 248.48C474.838 249.685 474.71 250.416 473.887 251.382C471.602 250.432 453.381 228.452 450.021 224.716C452.197 225.199 454.162 227.802 455.7 229.364L455.681 229.369L455.757 228.702C454.553 227.383 453.481 226.033 452.42 224.596L452.837 223.883Z"/>
	<path fill="white" d="M518.301 354.962C523.399 355.742 529.81 359.491 534.762 361.405C540.806 363.742 546.987 365.696 553.03 368.044C553.29 369.271 552.782 370.209 552.418 371.39C552.12 371.673 551.662 371.744 551.275 371.87C539.655 367.968 528.536 361.591 518.301 354.962Z"/>
	<path fill="white" d="M482.247 348.337C483.386 349.671 483.318 352.369 483.559 354.134C476.068 367.844 464.224 380.239 453.344 391.318L452.836 391.32C452.373 387.972 454.453 382.535 455.259 379.076Q469.309 364.194 482.247 348.337Z"/>
	<path fill="white" d="M424.642 93.704C428.348 94.122 433.16 95.081 436.192 97.2815C437.642 98.3334 438.402 99.5815 438.669 101.346C439.542 107.107 437.696 115.118 434.245 119.727C432.658 121.275 430.852 122.539 429.075 123.857C423.814 112.577 422.016 106.149 424.642 93.704Z"/>
	<path fill="white" d="M435.953 211.269C440.532 207.976 444.923 204.644 448.918 200.636C454.997 194.537 464.441 181.028 471.468 177.463C472.539 176.92 473.002 176.756 474.183 177.138C474.413 179.477 452.96 215.456 450.441 220.033L452.837 223.883L452.42 224.596C453.481 226.033 454.553 227.383 455.757 228.702L455.681 229.369L455.7 229.364C454.162 227.802 452.197 225.199 450.021 224.716C445.034 221.12 440.342 215.628 435.953 211.269Z"/>
	<path fill="white" d="M499.17 341.889C504.528 342.257 509.807 343.15 515.198 343.367C530.362 343.976 546.29 342.409 560.846 347.493C560.04 351.875 558.542 356.084 557.016 360.255C557.007 360.284 557 360.314 556.988 360.343C556.507 361.494 556.358 362.514 555.207 363.063C536.531 356.288 517.357 349.878 499.17 341.889Z"/>
	<path fill="white" d="M629.485 238.631C639.743 266.021 649.062 293.509 654.992 322.21Q645.244 326.293 635.342 329.987C635.417 327.056 635.389 324.233 635.128 321.311C634.798 310.399 634.605 299.126 632.449 288.393C631.331 282.823 628.293 277.274 627.831 271.69C627.414 266.651 628.648 261.291 629.088 256.251C629.601 250.381 629.582 244.518 629.485 238.631Z"/>
	<path fill="white" d="M482.243 262.846C483.193 267.06 482.796 272.374 483.045 276.744C483.43 283.536 484.569 290.519 483.99 297.316C482.772 311.629 478.926 325.344 479.619 339.867C473.357 348.566 465.318 356.377 458.012 364.203L457.197 364.623C456.746 363.414 457.081 362.224 457.31 360.998C459.145 351.155 462.005 341.334 464.1 331.506C467.485 315.624 470.179 299.369 474.532 283.723C476.521 276.575 479.436 269.704 482.243 262.846Z"/>
	<path fill="white" d="M564.001 131.941L564.464 132.076C566.311 134.056 567.957 150.147 568.514 153.89C554.593 155.707 543.063 160.087 531.599 168.28C527.781 171.008 523.901 174.435 519.852 176.772C515.799 179.111 511.075 179.856 506.971 182.412C491.521 192.034 484.679 208.973 482.718 226.343C482.134 231.52 482.455 237.318 481.301 242.339L480.601 242.095C478.271 239.668 475.811 237.324 474.027 234.452C475.66 227.153 478.067 219.921 480.89 212.996Q482.647 208.649 484.861 204.517Q487.076 200.384 489.721 196.513C495.421 188.339 502.314 181.45 509.228 174.338C525.388 157.713 542.243 141.032 564.001 131.941Z"/>
	<path fill="white" d="M563.361 113.032C564.18 116.206 563.561 120.7 563.492 124.031C553.151 127.251 543.205 133.721 534.704 140.3C526.792 146.423 519.51 153.25 512.446 160.324C491.281 181.516 476.434 203.202 472.535 233.812C470.731 231.964 469.053 229.917 467.337 227.982L461.814 221.491C469.215 208.627 475.067 194.917 482.69 182.209C500.849 151.939 530.216 125.305 563.361 113.032Z"/>
	<path fill="white" d="M484.344 41.6892C498.154 40.2648 513.78 42.0615 526.17 48.6527C536.918 54.3708 545.623 63.2554 549.102 75.1024C552.408 86.359 550.201 98.8166 544.606 108.961C540.827 104.166 537.157 100.289 532.284 96.5925C524.252 90.8799 514.671 86.3837 505.012 84.2725C501.473 83.4989 497.232 83.7179 493.983 82.0703C487.653 78.86 481.565 73.701 475.648 69.7228C468.036 64.6052 460.092 60.0194 452.183 55.3828C461.151 47.5232 472.633 43.1962 484.344 41.6892Z"/>
	<path fill="white" d="M532.152 178.212C544.489 169.339 555.6 164.405 570.802 163.14C587.91 173.035 606.405 196.865 616.813 214.041C618.811 217.34 620.795 220.782 621.736 224.555C628.026 249.777 612.021 302.274 605.359 329.112C615.441 315.671 620.115 297.84 625.413 282.088C629.334 298.91 627.929 315.521 629.051 332.581C623.431 336.366 615.547 338.728 609.256 341.297L568.747 357.754C573.467 344.867 575.529 322.198 576.965 308.316C577.59 302.269 577.919 296.063 579.27 290.131C584.527 267.059 598.107 245.913 599.458 221.836C600.13 209.854 596.832 198.34 588.749 189.324C589.846 191.767 590.969 194.214 591.949 196.706C601.644 221.354 589.043 245.86 579.324 268.318C578.224 245.165 578.031 214.951 563.259 195.862C555.484 185.815 544.666 179.877 532.152 178.212Z"/>
	<path fill="white" d="M521.704 186.611C524.743 186.36 527.899 186.329 530.922 186.751C540.886 188.142 549.493 193.398 555.449 201.489C572.257 224.321 569.676 278.669 566.956 305.776C565.664 318.652 563.545 331.444 561.556 344.226C546.909 337.683 532.956 339.328 517.406 338.682C509.162 338.339 500.895 337.185 492.784 335.677C498.434 331.749 504.709 328.555 510.504 324.811C532.267 310.747 545.602 296.109 554.894 271.916C544.883 284.278 536.427 295.408 524.29 305.857C513.864 314.8 502.015 322.32 490.74 330.159C491.315 318.715 492.313 306.506 494.66 295.284C496.424 286.847 499.268 278.565 501.74 270.312Q506.958 252.683 511.876 234.967C514.481 225.532 516.558 212.79 520.462 204.145C523.579 197.239 528.766 195.707 530.596 191.973C529.018 191.441 527.045 192.203 525.579 192.918C521.198 195.051 517.967 198.933 515.629 203.122C512.008 209.606 510.145 217.33 507.905 224.375C502.726 240.66 498.281 257.215 492.834 273.401C492.787 273.195 492.738 272.99 492.694 272.784C491.616 267.734 491.788 261.972 491.653 256.815C491.194 239.423 490.602 217.007 500.715 202.073C505.888 194.435 512.423 188.388 521.704 186.611Z"/>
	<path fill="#1B1B1B" d="M545.894 608.851C577.151 601.735 612.93 591.864 641.549 577.32C654.961 570.505 667.257 562.46 679.705 554.07C684.683 550.715 689.927 547.652 694.741 544.07C699.365 540.628 703.317 536.4 707.816 532.828C709.197 539.283 710.912 544.542 716.696 548.43C722.519 552.344 730.571 553.758 737.409 552.262C740.282 551.634 742.608 550.402 745.003 548.741C748.966 558.213 752.597 567.707 755.637 577.519C759.821 591.023 772.361 639.295 767.356 652.208C766.917 653.341 766.305 653.922 765.354 654.632C763.36 655.19 761.968 654.668 760.231 653.645C741.467 642.602 710.342 576.098 699.314 553.938C680.394 567.443 661.874 579.392 639.909 587.401C645.874 606.391 652.5 625.123 658.102 644.24C663.142 661.441 667.155 679.115 672.634 696.152C673.316 698.271 673.817 701.462 675.925 702.557C678.354 703.819 682.52 703.118 685.2 702.997C688.003 705.781 690.788 708.653 694.054 710.898C702.869 716.956 712.165 720.549 719.786 728.49C729.151 738.248 736.179 750.91 743.542 762.219C753.922 778.162 763.58 794.514 773.794 810.553Q782.628 824.164 791.849 837.517C794.273 833.964 796.553 830.271 799.063 826.785C807.901 837.848 814.269 844.73 824.952 854.213C823.239 858.665 821.257 862.924 819.19 867.216C827.07 873.206 833.872 880.594 841.45 886.983C851.423 895.391 862.149 902.908 871.99 911.47C861.313 933.295 847.632 953.658 834.469 974.038C829.764 981.322 825.583 989.72 819.447 995.918C815.842 999.559 810.693 1001.99 805.901 1003.66C791.832 1008.55 760.014 1007.85 746.837 1001.11C743.954 999.639 741.828 997.765 740.91 994.584C739.175 988.577 740.358 979.188 743.364 973.859C748.236 965.225 758.272 961.347 767.387 959.05Q770.385 958.31 773.424 957.764C780.53 941.591 787.947 925.219 781.065 907.683C780.428 906.058 779.691 904.47 778.954 902.888C775.525 904.574 772.215 906.39 768.91 908.309C758.613 897.107 747.565 887.117 736.73 876.501C739.965 873.865 743.078 871.138 745.737 867.905C738.205 858.883 729.629 850.884 721.111 842.808Q697.683 820.457 672.554 800.037C665.319 794.122 658.056 787.554 650.303 782.378C647.68 780.627 644.682 779.218 641.773 778.021C638.84 776.814 631.029 774.804 631.157 770.731C631.241 768.071 633.003 765.988 632.47 763.207C631.705 762.248 631.101 761.468 629.798 761.268C625.955 760.676 623.076 763.437 619.339 761.104C617.229 757.47 621.265 749.744 616.367 741.56C613.846 737.348 609.925 733.473 606.749 729.732C600.287 722.119 593.728 714.569 587.543 706.727Q569.912 684.491 552.761 661.883C547.068 654.373 541.733 645.912 535.527 638.897C531.843 642.738 528.862 647.482 525.738 651.801L509.824 673.866L491.022 699.805C487.634 704.55 483.796 709.421 481.094 714.595C482.855 715.175 484.992 715.563 486.158 717.094C486.416 718.337 486.504 718.995 485.861 720.148C484.209 723.11 480.725 725.411 478.666 728.229C480.283 729.416 481.784 730.324 482.637 732.203C482.651 733.639 482.729 733.962 481.669 735.065C479.704 737.111 475.53 737.995 473.045 739.589C472.626 754.125 473.607 768.92 473.783 783.476C473.853 789.275 474.543 796.154 473.309 801.848C472.361 806.226 421.908 893.556 416.636 900.739Q424.092 902.414 431.589 903.892C429.166 908.411 426.441 912.795 424.222 917.416C420.612 924.933 417.825 932.957 414.863 940.746C410.382 939.919 405.865 939.182 401.463 937.992C398.917 948.027 400.37 956.08 400.866 966.171C401.38 976.616 400.565 993.726 396.854 1003.48C396.76 1003.73 396.671 1003.97 396.576 1004.22C396.519 1004.37 396.457 1004.52 396.397 1004.67C389.624 1005.78 382.543 1005.85 375.689 1006.06C336.993 1007.28 272.996 1000.11 241.012 977.525C238.293 975.606 235.288 973.102 234.663 969.648C233.989 965.928 236.468 962.333 238.598 959.524C242.588 954.263 246.304 950.019 253.207 949.136C262.942 947.89 273.019 950.308 282.801 950.174C304.974 949.869 336.539 936.658 352.27 920.512C348.8 918.508 345.018 916.714 341.72 914.461C348.307 902.045 352.225 890.028 354.489 876.121C358.043 876.976 361.531 877.846 364.982 879.059Q375.331 843.361 384.56 807.357C387.605 795.547 391.127 783.6 393.394 771.622C394.729 764.575 395.381 757.299 396.277 750.182L394.013 744.848C395.683 740.928 401.025 734.96 399.9 732.373C398.79 729.82 395.486 728.21 393.418 726.455C397.293 723.546 401.225 720.684 404.581 717.163C403.347 715.256 402.031 713.385 401.087 711.313L401.367 710.695C403.241 706.665 406.305 704.826 408.803 701.424C412.233 696.752 413.105 687.298 414.295 681.517C416.693 673.494 417.779 664.192 418.789 655.877C420.942 647.12 421.514 637.742 423.295 628.849C425.72 621.366 426.932 606.434 428.191 598.143C431.019 582.317 435.423 558.903 441.252 544.135C447.428 549.649 453.486 553.065 462.092 552.612C470.474 552.171 477.484 548.625 483.674 543.122C493.679 552.698 502.966 555.341 516.559 556.57C519.513 568.327 523.049 579.071 529.38 589.506C561.236 582.205 619.416 568.164 644.726 548.861C648.384 551.182 651.898 552.847 655.941 554.38C628.964 571.67 598.461 581.754 567.688 590.067C557.444 592.834 547.083 595.742 536.574 597.317C539.686 601.102 543.083 604.848 545.894 608.851Z"/>
	<path fill="white" d="M355.027 929.257C356.596 929.431 357.538 929.651 358.696 930.766C358.711 932.564 358.213 933.16 357.362 934.712C356.042 933.894 354.751 933.086 353.518 932.139L353.443 931.061L355.027 929.257Z"/>
	<path fill="white" d="M307.197 971.289C307.608 971.516 307.711 971.535 308.063 971.946C309.292 973.383 310.305 977.018 310.243 978.847L309.401 979.143C308.16 978.917 307.075 978.726 305.934 978.147C305.12 977.024 304.487 976.284 304.701 974.802C304.945 973.122 305.887 972.212 307.197 971.289Z"/>
	<path fill="white" d="M300.145 957.159C301.108 957.078 302.042 957.077 303.008 957.071C303.818 957.515 304.508 957.994 305.114 958.694C306.458 960.245 307.388 962.829 307.176 964.881C306.307 964.853 305.832 964.772 305.021 964.535C303.241 962.859 300.292 959.724 300.145 957.159Z"/>
	<path fill="white" d="M793.286 921.67C795.615 922.762 799.307 923.25 801.106 925.088C802.386 926.395 802.078 927.965 802.148 929.659C799.843 928.358 796.57 927.551 794.635 925.812C793.205 924.526 793.451 923.459 793.286 921.67Z"/>
	<path fill="white" d="M781.983 957.039C782.183 957.045 782.384 957.035 782.582 957.057C785.836 957.427 792.519 960.519 794.401 963.041C794.954 963.782 794.588 964.614 794.488 965.477C793.71 965.484 793.187 965.441 792.454 965.107C789.703 963.856 783.102 959.669 781.983 957.039Z"/>
	<path fill="white" d="M786.103 947.604C788.44 947.268 791.072 947.782 793.252 948.62C796.221 949.762 797.728 951.322 798.921 954.207C797.715 954.188 796.829 953.918 795.72 953.486C793.05 952.446 787.293 950.387 786.103 947.604Z"/>
	<path fill="white" d="M791.227 935.148L795.785 936.439C797.264 936.849 799.306 937.298 800.311 938.589C801.362 939.938 801.072 941.251 801.084 942.865C798.302 941.349 793.686 940.309 791.613 937.982C790.947 937.235 791.221 936.121 791.227 935.148Z"/>
	<path fill="white" d="M342.127 939.268C344.308 940.483 347.992 941.266 349.377 943.314C349.252 944.869 348.474 945.207 347.387 946.278C345.583 945.835 342.258 944.611 341.031 943.185C340.279 942.311 340.288 942.027 340.317 940.951L342.127 939.268Z"/>
	<path fill="white" d="M326.131 947.824C327.52 947.851 328.491 948.222 329.745 948.753L330.49 949.073C331.468 949.486 332.52 949.865 333.427 950.423C334.528 951.1 335.323 951.67 335.671 952.91L334.346 954.254C333.464 954.563 333.126 954.615 332.231 954.615C329.558 953.329 326.983 952.051 325.601 949.263L326.131 947.824Z"/>
	<path fill="white" d="M314.792 953.187C316.672 954.227 318.949 956.162 320.341 957.799C321.159 958.761 321.56 959.375 321.426 960.659L319.89 961.501C318.763 962.035 317.997 962.437 316.727 962.488C315.249 961.369 314.406 960.298 314.066 958.476C313.645 956.222 313.479 955.075 314.792 953.187Z"/>
	<path fill="white" d="M256.122 956.658C265.472 956.719 282.868 958.251 290.644 963.298C294.087 965.532 296.02 969.046 296.724 973.068C296.964 974.439 297.028 975.665 296.247 976.846L294.389 976.582C284.554 974.282 259.477 967.202 253.295 960.511C252.448 959.595 252.551 959.398 252.641 958.228C253.785 957.077 254.572 957.057 256.122 956.658Z"/>
	<path fill="white" d="M778.563 965.055C786.223 969.601 792.189 976.352 796.602 983.996C787.92 987.24 778.565 986.32 769.586 984.962C762.97 983.829 756.585 982.478 750.225 980.268L750.663 979.608C757.248 969.553 767.912 969.709 777.913 965.342L778.563 965.055Z"/>
	<path fill="white" d="M245.239 964.264C248.158 966.847 251.105 969.128 254.448 971.142C265.999 978.103 279.8 981.764 292.83 984.921C323.84 992.433 358.907 997.847 390.41 990.078L390.368 996.389Q382.155 997.23 373.908 997.586Q365.66 997.943 357.405 997.815Q349.151 997.687 340.918 997.074Q332.685 996.461 324.503 995.366C306.14 992.747 254.697 982.954 243.578 968.161C243.469 966.706 244.512 965.462 245.239 964.264Z"/>
	<path fill="white" d="M854.084 909.182C856.459 910.873 858.745 912.685 861.049 914.47C851.662 930.267 841.819 945.712 832.02 961.251C826.997 969.216 822.344 977.974 816.542 985.376C814.384 988.13 811.823 990.577 808.841 992.425C793.355 1002.02 770.272 998.191 753.622 994.311C752.183 993.976 751.125 993.663 749.857 992.846C748.848 991.229 749.161 989.262 749.228 987.427C764.174 993.138 789.213 996.785 804.414 990.4C806.883 989.362 808.439 988.237 810.221 986.236C817.051 978.569 822.244 968.201 827.394 959.324C836.766 943.166 846.963 926.468 854.084 909.182Z"/>
	<path fill="white" d="M798.61 842.399C804.002 846.844 808.803 852.112 813.84 856.959C805.103 873.056 788.425 888.196 772.158 896.406L770.554 896.784C768.439 895.772 760.53 884.276 758.325 881.53C774.881 869.221 786.054 858.906 798.61 842.399Z"/>
	<path fill="white" d="M361.239 888.599C365.634 890.601 369.879 893.228 374.164 895.482C387.536 902.517 401.373 908.667 416.363 911.216Q411.981 920.827 408.6 930.835C390.247 926.879 370.209 920.179 353.566 911.439C356.229 903.866 358.995 896.309 361.239 888.599Z"/>
	<path fill="white" d="M814.477 873.237C819.084 875.563 828.279 887.204 832.736 891.39C837.41 895.781 842.588 899.808 847.584 903.83C838.402 922.313 829.256 940.54 818.825 958.372C814.33 966.057 809.781 974.401 803.72 980.963Q800.851 977.186 798.137 973.296C799.667 970.312 800.866 967.285 802.03 964.142C805.526 953.298 808.37 940.421 808.463 929.005C808.508 923.493 808.118 908.739 803.508 905.049C801.486 903.429 797.298 903.97 794.828 903.996C792.666 901.754 790.719 899.217 788.723 896.821C793.047 893.626 797.352 890.449 801.467 886.983C805.586 889.446 822.322 900.972 825.857 900.687C826.636 900.624 827.25 900.358 827.654 899.698C828.873 897.707 827.71 895.198 827.098 893.15C821.196 888.888 813.627 885.083 807.128 881.785L814.477 873.237Z"/>
	<path fill="white" d="M366.732 928.072C375.676 930.6 384.439 933.637 393.242 936.609C388.893 951.762 393.913 965.544 391.646 980.8C376.684 985.139 359.87 985.579 344.378 984.841C335.502 984.086 326.952 982.837 318.221 981.072L315.901 969.675Q320.78 968.353 325.497 966.536Q330.214 964.719 334.719 962.426C349.937 954.684 361.453 944.533 366.732 928.072Z"/>
</svg>
